<svg xmlns="http://www.w3.org/2000/svg" height="24" viewBox="0 -960 960 960" width="24"><path d="M40-209.23v-40.001h144.615V-280Q157-280 138.5-298.5 120-317 120-344.615v-350.77Q120-723 138.5-741.5 157-760 184.615-760h590.77Q803-760 821.5-741.5 840-723 840-695.385v350.77Q840-317 821.5-298.5 803-280 775.385-280v30.769H920v40.001H40ZM184.615-320h590.77q10.769 0 17.692-6.923T800-344.615v-350.77q0-10.769-6.923-17.692T775.385-720h-590.77q-10.769 0-17.692 6.923T160-695.385v350.77q0 10.769 6.923 17.692T184.615-320ZM160-320v-400 400Z"/></svg>