<svg xmlns="http://www.w3.org/2000/svg" height="24" viewBox="0 -960 960 960" width="24"><path d="M184.615-181.538V-240q-26.846 0-45.731-18.884Q120-277.769 120-304.615v-390.77q0-26.846 18.884-45.731Q157.769-760 184.615-760h590.77q26.846 0 45.731 18.884Q840-722.231 840-695.385v390.77q0 26.846-18.884 45.731Q802.231-240 775.385-240v58.462h-20L734.769-240H227l-22.385 58.462h-20Zm0-98.462h590.77q10.769 0 17.692-6.923T800-304.615v-390.77q0-10.769-6.923-17.692T775.385-720h-590.77q-10.769 0-17.692 6.923T160-695.385v390.77q0 10.769 6.923 17.692T184.615-280ZM480-500Z"/></svg>